<svg width="832" height="832" viewBox="0 0 832 832" fill="none" xmlns="http://www.w3.org/2000/svg">
<path d="M509.721 7.1373C509.721 11.7917 510.616 18.9524 511.332 22.8907C512.227 26.8291 513.48 33.2737 514.017 37.2121C515.986 50.4593 524.937 73.7314 531.382 83.2193C533.351 85.7255 534.783 89.4849 534.783 91.275C534.783 94.4973 533.888 94.6763 522.789 93.2442C487.165 88.9478 445.275 77.3117 421.287 64.9596L407.323 57.6199L408.397 62.2743C409.471 66.2127 412.515 73.7314 420.928 91.812C422.361 94.6548 423.614 96.1551 424.375 97.3401C424.956 98.2463 426.836 101.3 429.342 105.238C437.756 117.948 454.942 136.029 469.979 147.844C480.72 156.258 483.047 160.196 479.288 162.524C478.214 163.061 470.024 173.198 467.294 176.487C464.564 179.775 454.718 193.316 451.898 198.037C449.079 202.757 435.966 228.223 433.639 239.501C429.521 258.834 433.773 295.377 437.801 306.789C438.751 309.482 439.815 312.831 440.978 316.657C442.589 325.966 452.256 345.12 461.207 357.472C470.516 370.183 482.689 383.072 524.579 425.32C543.018 443.937 558.055 459.691 558.055 460.228C558.055 460.765 559.308 462.376 560.74 463.987C566.648 470.253 570.72 448.436 572.063 450.45C573.406 452.464 572.913 451.925 574.166 453.873C575.42 455.82 575.42 455.82 576.762 457.834C578.105 459.848 578.15 460.185 580.119 463.205C582.307 466.561 585.624 471.953 587.056 475.355C588.667 478.756 591.531 485.201 593.5 489.676C595.469 494.151 597.26 500.619 596.902 500.798C593.5 500.127 582.133 508.854 524.758 461.123C456.374 393.276 448.139 383.609 437.756 358.009C427.731 333.305 425.583 321.132 425.583 289.446V260.266L420.749 256.507C411.799 249.525 373.489 213.364 342.161 182.215C325.334 165.388 301.525 142.653 289.351 131.375C277.178 120.097 257.487 100.763 245.671 88.5898C233.856 76.2376 209.331 51.1753 191.25 32.9157C165.114 6.60027 158.669 0.69274 159.744 4.98913C160.46 7.8534 161.355 12.3288 161.713 14.835C162.071 17.3412 163.861 26.471 165.83 35.4219C167.62 44.1937 172.096 65.6757 175.676 82.8613C179.256 100.047 183.374 119.023 184.985 124.93C186.417 130.838 189.102 144.085 191.071 154.468C192.862 164.851 196.084 180.962 198.232 190.271C200.38 199.58 203.245 212.827 204.677 219.63C206.109 226.432 208.436 233.951 209.868 236.636C212.195 241.112 230.813 260.266 242.091 269.754C251.937 277.989 243.702 274.588 226.696 263.31C217.387 257.223 207.899 251.137 205.393 249.705C202.887 248.451 194.473 242.723 186.596 236.994C170.843 225.537 162.787 219.988 119.465 190.271C103.174 179.172 87.242 168.073 83.8407 165.746C77.038 161.091 75.2479 161.27 78.1121 166.462C79.0072 168.252 88.6741 191.345 99.5941 218.019C130.564 294.638 138.62 314.329 141.663 321.132C144.706 328.293 140.947 326.503 196.084 348.88L230.813 363.022L183.553 364.454C157.595 365.17 124.119 365.349 108.903 364.812C93.6866 364.275 81.5134 364.096 82.0505 364.633C82.4085 364.991 87.958 368.929 94.4026 373.226C104.07 379.67 129.848 397.751 162.608 421.023C166.188 423.529 186.775 438.03 208.257 453.246C229.918 468.283 248.178 453.157 249.073 454.052C249.968 454.947 201.812 455.126 141.842 454.41L33 453.336L34.0741 496.121C35.1482 540.517 37.2964 556.628 46.0682 586.524C51.7967 606.395 54.84 614.092 65.402 634.679C70.7725 645.062 75.9639 655.266 77.217 657.414C79.3652 661.711 80.6184 662.069 95.6557 661.532C104.786 661.353 105.502 661.711 115.348 670.841C121.076 676.032 140.231 694.829 157.953 712.551C175.676 730.274 210.226 764.108 234.751 787.738L279.148 830.702L330.525 831.597C358.631 832.134 418.243 832.134 462.639 831.597L543.734 830.702L645.236 730.453C751.751 625.37 777.171 600.129 782.363 594.042C783.974 592.073 787.196 583.839 789.165 575.783C794.357 555.554 793.462 521.362 787.375 503.997C779.498 481.262 771.443 496.031 751.751 473.296C739.399 458.796 729.911 450.024 693.212 418.517C675.669 403.301 632.705 363.201 618.563 348.88C599.05 328.651 589.383 303.23 590.457 274.051C591.173 258.476 591.531 256.507 595.469 253.106C601.735 247.735 606.389 246.84 624.649 248.093C638.433 248.988 642.014 249.884 651.86 255.433C672.805 267.248 687.484 286.761 685.873 301.261C685.157 308.78 680.144 328.943 677.996 333.484C675.848 338.026 676.788 336.327 674.774 339.684C672.088 343.04 672.805 342.256 680.144 337.602C687.157 332.566 688.2 331.628 693.387 328.093C694.403 327.225 695.564 326.219 696.967 325.003C697.143 324.85 697.324 324.693 697.509 324.533C700.91 321.49 703.287 320.003 704.983 318.873C706.997 317.53 709.682 315.74 711.024 314.845C715.052 312.16 715.41 311.823 726.33 303.946C731.701 300.008 737.071 296.249 737.967 295.533C746.559 288.73 756.763 281.569 757.658 281.569C757.877 281.569 758.499 281.251 759.415 280.686C761.493 279.404 765.085 276.853 768.936 273.872C774.665 269.754 780.841 265.302 783.616 263.31C786.122 261.699 790.418 258.476 793.104 256.149L798.116 252.032L753.362 207.278C728.658 182.752 708.429 161.807 708.429 160.733C708.429 159.659 712.367 154.826 717.201 150.171L725.972 141.579L715.947 132.986C710.219 128.331 703.237 122.066 700.015 119.381C696.972 116.516 689.453 110.072 683.366 105.238C643.446 73.0153 631.989 62.8114 626.797 55.1137C623.575 50.1012 617.488 35.7799 614.266 25.576C613.013 21.4586 612.834 21.6376 611.402 28.2612C610.507 32.1996 609.075 42.9405 608.18 52.2494C607.285 61.3792 606.21 69.256 605.673 69.7931C605.315 70.1511 600.258 68.5185 594.888 65.1172C589.338 61.5368 586.238 59.0091 584.147 57.7327C582.938 56.9952 581.461 55.7188 577.747 52.7865C571.385 47.7643 568.617 44.7307 547.314 28.2612C538.9 21.8166 530.307 15.193 528.338 13.5819C526.19 11.7917 522.252 8.74845 519.567 6.77927C516.702 4.81009 513.48 2.12481 512.048 0.871696C510.079 -1.09748 509.721 -0.0233577 509.721 7.1373ZM363.643 502.207H415.737L384.409 532.64C350.754 565.221 341.087 571.844 325.155 573.456C306.537 575.246 289.709 564.863 280.58 545.887C274.672 533.893 283.354 506.749 285.055 503.102C286.756 499.456 286.756 498.784 289.441 494.756C292.126 490.729 292.037 491.645 301.525 496.658L311.728 502.207H363.643ZM597.797 510.979C597.081 519.93 596.723 520.288 576.852 540.338C551.968 565.221 541.944 570.949 526.369 569.159C512.048 567.727 499.338 559.134 493.788 547.14C486.448 531.566 490.745 510.979 502.56 504.534C504.708 503.46 594.216 500.596 597.439 501.67C597.976 501.67 597.976 505.966 597.797 510.979Z" fill="white"/>
<path d="M693.387 328.093C694.403 327.225 695.564 326.219 696.967 325.003L697.509 324.533C700.91 321.49 703.287 320.003 704.983 318.873L711.024 314.845C715.052 312.16 715.41 311.823 726.33 303.946C731.701 300.008 737.071 296.249 737.967 295.533C746.559 288.73 756.763 281.569 757.658 281.569C757.877 281.569 758.499 281.251 759.415 280.686L693.387 328.093Z" fill="white"/>
</svg>
