<svg width="1022" height="832" viewBox="0 0 1022 832" fill="none" xmlns="http://www.w3.org/2000/svg">
<path d="M581.067 101.316C581.067 104.783 581.733 110.116 582.267 113.049C582.933 115.983 583.867 120.783 584.267 123.716C585.733 133.583 592.4 150.916 597.2 157.983C598.667 159.849 599.733 162.649 599.733 163.983C599.733 166.383 599.067 166.516 590.8 165.449C564.267 162.249 533.067 153.583 515.2 144.383L504.8 138.916L505.6 142.383C506.4 145.316 508.667 150.916 514.933 164.383C516 166.5 516.933 167.617 517.5 168.5C517.933 169.175 519.333 171.449 521.2 174.383C527.467 183.849 540.267 197.316 551.467 206.116C559.467 212.383 561.2 215.316 558.4 217.049C557.6 217.449 551.5 225 549.467 227.449C547.433 229.899 540.1 239.984 538 243.5C535.9 247.016 526.133 265.983 524.4 274.383C521.333 288.783 524.5 316 527.5 324.5C528.208 326.506 529 329 529.867 331.849C531.067 338.783 538.267 353.049 544.933 362.249C551.867 371.716 560.933 381.316 592.133 412.783C605.867 426.649 617.067 438.383 617.067 438.783C617.067 439.183 618 440.383 619.067 441.583C623.467 446.249 626.5 451 627.5 452.5C628.5 454 628.133 453.599 629.067 455.049C630 456.5 630 456.5 631 458C632 459.5 632.033 459.751 633.5 462C635.13 464.5 637.6 468.516 638.667 471.049C639.867 473.583 642 478.383 643.467 481.716C644.933 485.049 646 487.983 645.733 488.116C644 489.983 634.8 481.583 592.267 439.449C541.333 388.916 535.2 381.716 527.467 362.649C520 344.249 518.4 335.183 518.4 311.583V289.849L514.8 287.049C508.133 281.849 479.6 254.916 456.267 231.716C443.733 219.183 426 202.249 416.933 193.849C407.867 185.449 393.2 171.049 384.4 161.983C375.6 152.783 357.333 134.116 343.867 120.516C324.4 100.916 319.6 96.516 320.4 99.716C320.933 101.849 321.6 105.183 321.867 107.049C322.133 108.916 323.467 115.716 324.933 122.383C326.267 128.916 329.6 144.916 332.267 157.716C334.933 170.516 338 184.649 339.2 189.049C340.267 193.449 342.267 203.316 343.733 211.049C345.067 218.783 347.467 230.783 349.067 237.716C350.667 244.649 352.8 254.516 353.867 259.583C354.933 264.649 356.667 270.249 357.733 272.249C359.467 275.583 373.333 289.849 381.733 296.916C389.067 303.049 382.933 300.516 370.267 292.116C363.333 287.583 356.267 283.049 354.4 281.983C352.533 281.049 346.267 276.783 340.4 272.516C328.667 263.983 322.667 259.849 290.4 237.716C278.267 229.449 266.4 221.183 263.867 219.449C258.8 215.983 257.467 216.116 259.6 219.983C260.267 221.316 267.467 238.516 275.6 258.383C298.667 315.449 304.667 330.116 306.933 335.183C309.2 340.516 306.4 339.183 347.467 355.849L373.333 366.383L338.133 367.449C318.8 367.983 293.867 368.116 282.533 367.716C271.2 367.316 262.133 367.183 262.533 367.583C262.8 367.849 266.933 370.783 271.733 373.983C278.933 378.783 298.133 392.249 322.533 409.583C325.2 411.449 340.533 422.249 356.533 433.583C372.667 444.783 386.267 454.516 386.933 455.183C387.6 455.849 351.733 455.983 307.067 455.449L226 454.649L226.8 486.516C227.6 519.583 229.2 531.583 235.733 553.849C240 568.649 242.267 574.383 250.133 589.716C254.133 597.449 258 605.049 258.933 606.649C260.533 609.849 261.467 610.116 272.667 609.716C279.467 609.583 280 609.849 287.333 616.649C291.6 620.516 305.867 634.516 319.067 647.716C332.267 660.916 358 686.116 376.267 703.716L409.333 735.716L447.6 736.383C468.533 736.783 512.933 736.783 546 736.383L606.4 735.716L682 661.049C761.333 582.783 780.267 563.983 784.133 559.449C785.333 557.983 787.733 551.849 789.2 545.849C793.067 530.783 792.4 505.316 787.867 492.383C782 475.449 776 465.449 761.333 448.516C752.133 437.716 745.067 431.183 717.733 407.716C704.667 396.383 672.667 366.516 662.133 355.849C647.6 340.783 640.4 321.849 641.2 300.116C641.733 288.516 642 287.049 644.933 284.516C649.6 280.516 653.067 279.849 666.667 280.783C676.933 281.449 679.6 282.116 686.933 286.249C702.533 295.049 713.467 309.583 712.267 320.383C711.733 325.983 708 341 706.4 344.383C704.8 347.765 705.5 346.5 704 349C702 351.5 702.533 350.916 708 347.449C713.224 343.699 714 343 717.863 340.367C718.62 339.721 719.485 338.972 720.529 338.066C720.661 337.952 720.796 337.835 720.933 337.716C723.467 335.449 725.237 334.342 726.5 333.5C728 332.5 730 331.167 731 330.5C734 328.5 734.267 328.249 742.4 322.383C746.4 319.449 750.4 316.649 751.067 316.116C757.467 311.049 765.067 305.716 765.733 305.716C765.897 305.716 766.359 305.479 767.042 305.058C768.589 304.103 771.265 302.203 774.133 299.983C778.4 296.916 783 293.6 785.067 292.116C786.933 290.916 790.133 288.516 792.133 286.783L795.867 283.716L762.533 250.383C744.133 232.116 729.067 216.516 729.067 215.716C729.067 214.916 732 211.316 735.6 207.849L742.133 201.449L734.667 195.049C730.4 191.583 725.2 186.916 722.8 184.916C720.533 182.783 714.933 177.983 710.4 174.383C680.667 150.383 672.133 142.783 668.267 137.049C665.867 133.316 661.333 122.649 658.933 115.049C658 111.983 657.867 112.116 656.8 117.049C656.133 119.983 655.067 127.983 654.4 134.916C653.733 141.716 652.933 147.583 652.533 147.983C652.267 148.249 648.5 147.033 644.5 144.5C640.367 141.833 638.058 139.951 636.5 139C635.6 138.451 634.5 137.5 631.733 135.316C626.995 131.575 624.933 129.316 609.067 117.049C602.8 112.249 596.4 107.316 594.933 106.116C593.333 104.783 590.4 102.516 588.4 101.049C586.267 99.5827 583.867 97.5826 582.8 96.6493C581.333 95.1826 581.067 95.9827 581.067 101.316ZM472.267 491.049H511.067L487.733 513.716C462.667 537.983 455.467 542.916 443.6 544.116C429.733 545.449 417.2 537.716 410.4 523.583C406 514.649 412.467 494.432 413.733 491.716C415 489 415 488.5 417 485.5C419 482.5 418.933 483.183 426 486.916L433.6 491.049H472.267ZM646.667 497.583C646.133 504.249 645.867 504.516 631.067 519.449C612.533 537.983 605.067 542.249 593.467 540.916C582.8 539.849 573.333 533.449 569.2 524.516C563.733 512.916 566.933 497.583 575.733 492.783C577.333 491.983 644 489.849 646.4 490.649C646.8 490.649 646.8 493.849 646.667 497.583Z" fill="url(#paint0_linear_2006_74)"/>
<path d="M717.863 340.367C718.62 339.721 719.485 338.972 720.529 338.066L720.933 337.716C723.467 335.449 725.237 334.342 726.5 333.5L731 330.5C734 328.5 734.267 328.249 742.4 322.383C746.4 319.449 750.4 316.649 751.067 316.116C757.467 311.049 765.067 305.716 765.733 305.716C765.897 305.716 766.359 305.479 767.042 305.058L717.863 340.367Z" fill="url(#paint1_linear_2006_74)"/>
<defs>
<linearGradient id="paint0_linear_2006_74" x1="510.933" y1="96.0001" x2="510.933" y2="758.394" gradientUnits="userSpaceOnUse">
<stop stop-color="#950000"/>
<stop offset="1" stop-color="#2F0000"/>
</linearGradient>
<linearGradient id="paint1_linear_2006_74" x1="510.933" y1="96.0001" x2="510.933" y2="758.394" gradientUnits="userSpaceOnUse">
<stop stop-color="#950000"/>
<stop offset="1" stop-color="#2F0000"/>
</linearGradient>
</defs>
</svg>
